<svg xmlns="http://www.w3.org/2000/svg" width="760" height="160" viewBox="0 0 760 160" role="img" aria-label="Engineering, AI, content creation and security tools"><rect x="93" y="11" width="51" height="51" rx="11" fill="#356d9a"/><text x="118.5" y="45" text-anchor="middle" font-family="Arial,sans-serif" font-size="19" font-weight="800" fill="#fff">Py</text><text x="152" y="41" font-family="Arial,sans-serif" font-size="12" font-weight="600" fill="#57606a">Python</text><rect x="225" y="11" width="51" height="51" rx="11" fill="#3178c6"/><text x="250.5" y="45" text-anchor="middle" font-family="Arial,sans-serif" font-size="19" font-weight="800" fill="#fff">TS</text><text x="284" y="41" font-family="Arial,sans-serif" font-size="12" font-weight="600" fill="#57606a">TypeScript</text><rect x="357" y="11" width="51" height="51" rx="11" fill="#d6b337"/><text x="382.5" y="45" text-anchor="middle" font-family="Arial,sans-serif" font-size="19" font-weight="800" fill="#fff">JS</text><text x="416" y="41" font-family="Arial,sans-serif" font-size="12" font-weight="600" fill="#57606a">JavaScript</text><rect x="489" y="11" width="51" height="51" rx="11" fill="#42b883"/><text x="514.5" y="45" text-anchor="middle" font-family="Arial,sans-serif" font-size="19" font-weight="800" fill="#fff">Vue</text><text x="548" y="41" font-family="Arial,sans-serif" font-size="12" font-weight="600" fill="#57606a">Vue</text><rect x="621" y="11" width="51" height="51" rx="11" fill="#e8664b"/><text x="646.5" y="45" text-anchor="middle" font-family="Arial,sans-serif" font-size="19" font-weight="800" fill="#fff">Git</text><text x="680" y="41" font-family="Arial,sans-serif" font-size="12" font-weight="600" fill="#57606a">Git</text><rect x="93" y="88" width="51" height="51" rx="11" fill="#353d48"/><text x="118.5" y="122" text-anchor="middle" font-family="Arial,sans-serif" font-size="19" font-weight="800" fill="#fff">GH</text><text x="152" y="118" font-family="Arial,sans-serif" font-size="12" font-weight="600" fill="#57606a">GitHub</text><rect x="225" y="88" width="51" height="51" rx="11" fill="#45a9b7"/><text x="250.5" y="122" text-anchor="middle" font-family="Arial,sans-serif" font-size="19" font-weight="800" fill="#fff">CX</text><text x="284" y="118" font-family="Arial,sans-serif" font-size="12" font-weight="600" fill="#57606a">Codex</text><rect x="357" y="88" width="51" height="51" rx="11" fill="#8b78da"/><text x="382.5" y="122" text-anchor="middle" font-family="Arial,sans-serif" font-size="19" font-weight="800" fill="#fff">AI</text><text x="416" y="118" font-family="Arial,sans-serif" font-size="12" font-weight="600" fill="#57606a">AI Agent</text><rect x="489" y="88" width="51" height="51" rx="11" fill="#e36e92"/><text x="514.5" y="122" text-anchor="middle" font-family="Arial,sans-serif" font-size="19" font-weight="800" fill="#fff">VID</text><text x="548" y="118" font-family="Arial,sans-serif" font-size="12" font-weight="600" fill="#57606a">Video</text><rect x="621" y="88" width="51" height="51" rx="11" fill="#e6a348"/><text x="646.5" y="122" text-anchor="middle" font-family="Arial,sans-serif" font-size="19" font-weight="800" fill="#fff">SEC</text><text x="680" y="118" font-family="Arial,sans-serif" font-size="12" font-weight="600" fill="#57606a">Security</text></svg>